<?xml version="1.0" standalone="no"?>
<!DOCTYPE svg PUBLIC "-//W3C//DTD SVG 20010904//EN"
 "http://www.w3.org/TR/2001/REC-SVG-20010904/DTD/svg10.dtd">
<svg version="1.0" xmlns="http://www.w3.org/2000/svg"
 width="159.000000pt" height="222.000000pt" viewBox="0 0 159.000000 222.000000"
 preserveAspectRatio="xMidYMid meet">

<style>
g {
    fill: black;
}
@media (prefers-color-scheme: dark) {
    g {
    fill: white;
    }
}
</style>

<g transform="translate(0.000000,222.000000) scale(0.100000,-0.100000)" stroke="none">
<path d="M691 2153 c-19 -3 -40 -10 -47 -17 -18 -18 -34 -83 -34 -137 0 -43
-2 -47 -27 -54 -16 -4 -33 -11 -39 -15 -5 -5 -48 -122 -95 -260 l-84 -250 21
-38 c17 -29 32 -40 70 -52 l49 -15 -20 -40 c-14 -29 -18 -56 -16 -95 1 -30 3
-120 4 -200 2 -138 0 -149 -30 -240 -18 -52 -37 -128 -43 -169 -8 -54 -20 -89
-45 -130 -19 -31 -35 -64 -35 -73 0 -16 54 -68 70 -68 5 0 14 -10 21 -21 8
-17 8 -23 -2 -29 -18 -12 -156 -1 -211 17 -26 8 -53 11 -59 8 -17 -11 -59
-107 -59 -137 0 -25 6 -29 57 -44 44 -13 75 -15 133 -9 41 4 88 7 104 6 15 0
40 6 55 13 48 24 118 29 150 10 25 -15 37 -16 85 -6 30 6 77 9 105 5 l49 -6
41 82 c23 44 44 81 47 81 3 0 2 -16 -2 -35 -12 -63 0 -80 79 -120 l73 -36 74
29 c41 16 101 35 133 42 43 9 57 16 57 29 0 23 -29 109 -48 141 -12 21 -10 21
13 -5 15 -16 45 -67 66 -112 44 -91 47 -93 122 -67 37 12 47 21 47 38 0 25
-25 128 -42 169 -11 29 -124 117 -149 117 -8 0 -31 -14 -52 -31 -20 -17 -37
-28 -37 -26 0 2 16 38 35 78 l35 74 -41 37 c-35 32 -44 36 -65 27 -30 -11 -74
-12 -91 -1 -26 16 172 798 213 844 10 11 17 34 16 60 0 24 8 73 19 109 25 85
25 109 0 109 -15 0 -25 -16 -43 -72 -17 -50 -32 -77 -47 -84 -12 -6 -32 -21
-44 -32 -21 -20 -25 -20 -45 -6 -16 11 -34 13 -70 8 l-48 -6 -67 71 c-37 39
-67 78 -67 86 0 8 13 15 32 17 24 2 36 10 46 31 7 15 17 27 23 27 5 0 9 11 9
25 0 25 13 55 37 86 11 13 9 19 -8 38 -12 13 -34 27 -49 32 -31 11 -50 46 -50
89 0 22 -7 33 -27 44 -33 16 -195 67 -209 64 -5 0 -24 -3 -43 -5z m549 -735
c0 -23 -65 -272 -118 -453 -16 -55 -40 -150 -53 -211 l-24 -111 -28 10 c-21 7
-36 24 -53 61 l-23 50 27 46 c14 25 45 80 67 123 23 42 44 75 47 72 8 -8 28
53 28 84 0 14 -6 34 -13 43 -14 18 -231 128 -253 128 -25 0 -23 18 13 85 l36
68 77 -7 c43 -3 92 -13 109 -22 41 -20 78 -12 113 27 32 35 48 37 48 7z m-372
-399 c17 -6 32 -14 32 -18 0 -19 -75 -179 -96 -204 -50 -59 -41 -113 23 -146
21 -10 47 -29 58 -40 18 -21 18 -24 3 -48 -9 -15 -35 -33 -59 -42 -43 -16 -44
-18 -47 -65 -3 -45 -8 -54 -72 -119 -61 -62 -71 -69 -96 -63 -16 4 -34 16 -41
26 -7 10 -23 20 -35 22 -37 5 -52 76 -32 152 20 78 77 223 115 294 16 30 29
60 29 67 0 17 57 154 76 183 14 22 21 23 62 17 26 -3 62 -11 80 -16z"/>
</g>
</svg>
